<?xml version="1.0" standalone="no"?>
<!DOCTYPE svg PUBLIC "-//W3C//DTD SVG 20010904//EN"
 "http://www.w3.org/TR/2001/REC-SVG-20010904/DTD/svg10.dtd">
<svg version="1.0" xmlns="http://www.w3.org/2000/svg"
 width="700.000000pt" height="700.000000pt" viewBox="0 0 700.000000 700.000000"
 preserveAspectRatio="xMidYMid meet">
<metadata>
Created by potrace 1.14, written by Peter Selinger 2001-2017
</metadata>
<g transform="translate(0.000000,700.000000) scale(0.100000,-0.100000)"
fill="#000000" stroke="none">
<path d="M733 6940 c-35 -32 -63 -61 -63 -63 0 -2 -5 -29 -11 -58 -15 -77 -17
-86 -40 -195 -11 -55 -22 -110 -25 -124 -11 -61 -54 -264 -57 -266 -1 -1 -122
-70 -269 -154 l-268 -152 6 -37 c2 -20 7 -47 9 -61 3 -14 7 -41 10 -60 3 -19
7 -35 8 -36 1 -1 47 -30 102 -64 55 -35 107 -69 115 -77 11 -10 15 -45 16
-161 1 -81 5 -397 9 -702 9 -716 12 -655 -33 -722 -24 -37 -25 -42 -23 -213 2
-205 10 -492 15 -546 5 -51 35 -100 72 -119 16 -8 79 -31 139 -50 l110 -36 -1
-40 c-1 -21 -5 -145 -9 -274 -5 -129 -7 -469 -5 -755 2 -286 4 -847 4 -1247
l1 -727 253 -1 252 0 0 23 c0 12 -7 60 -15 107 -13 76 -22 136 -30 195 -2 11
-11 65 -20 120 -9 55 -18 109 -19 120 -2 11 -6 36 -10 55 -6 35 -12 67 -22
129 -3 18 -7 43 -10 55 -2 11 -13 71 -24 131 -23 128 -26 143 -40 210 -14 66
-19 94 -26 129 -2 16 -7 32 -9 35 -2 4 -6 26 -10 50 -3 24 -15 78 -25 120 -10
42 -24 103 -29 136 -6 33 -13 71 -16 85 -11 56 -21 130 -30 220 -4 36 -9 67
-10 71 -13 21 -23 435 -15 646 5 133 16 94 19 -64 1 -87 4 -178 6 -203 2 -25
6 -94 9 -155 4 -60 9 -121 11 -135 2 -14 7 -54 10 -90 4 -36 9 -72 10 -80 1
-8 6 -40 10 -70 4 -30 9 -62 10 -70 8 -46 19 -106 20 -110 1 -3 5 -25 9 -50 5
-25 17 -79 27 -120 18 -73 88 -423 110 -545 6 -33 15 -80 19 -105 5 -25 12
-61 15 -80 4 -33 7 -48 21 -130 3 -19 8 -46 10 -60 4 -26 20 -124 29 -175 3
-16 12 -77 21 -135 8 -58 17 -116 20 -130 2 -14 7 -46 10 -72 4 -31 12 -48 23
-50 9 -3 67 -6 130 -7 l113 -2 -6 148 c-4 81 -9 177 -11 213 -2 36 -7 123 -10
195 -3 72 -7 159 -10 195 -2 36 -6 132 -10 215 -3 82 -8 179 -10 215 -2 36 -7
119 -10 185 -13 269 -15 285 -35 326 -28 53 -90 207 -100 244 -4 17 -20 70
-34 119 -14 49 -29 103 -32 120 -3 17 -9 49 -14 71 -5 22 -11 60 -14 85 -3 25
-8 68 -12 95 -3 28 -7 116 -8 197 -2 129 2 201 19 328 2 19 4 45 5 58 0 12 5
22 11 22 5 0 7 -4 4 -10 -14 -22 -6 -518 9 -597 3 -12 7 -48 11 -80 3 -32 8
-65 10 -73 2 -8 7 -30 10 -47 28 -165 77 -317 157 -483 23 -47 42 -96 44 -110
1 -14 5 -104 9 -200 4 -96 8 -200 10 -230 2 -30 6 -134 9 -230 4 -96 9 -211
11 -255 3 -44 7 -129 10 -190 7 -188 18 -449 20 -475 1 -14 3 -30 4 -37 1 -9
77 -12 328 -10 300 2 326 3 329 19 1 10 5 494 8 1075 6 996 17 3048 20 3633
l1 265 255 -1 c140 -1 421 -3 623 -4 336 -1 370 -3 385 -19 24 -25 179 -196
233 -256 24 -27 46 -52 49 -55 3 -3 45 -50 94 -105 50 -55 92 -102 95 -105 3
-3 46 -50 95 -105 50 -55 95 -105 100 -110 6 -6 47 -51 91 -100 108 -121 151
-169 208 -229 l48 -51 -6 -80 c-3 -44 -7 -94 -9 -112 -2 -19 3 -39 13 -50 9
-10 52 -59 96 -108 44 -49 101 -112 127 -140 25 -27 56 -61 68 -75 30 -35 162
-181 179 -197 7 -8 21 -11 30 -8 62 24 65 23 109 -75 l42 -91 28 20 c15 11 42
32 61 48 l33 29 5 134 c3 74 6 136 7 137 1 2 26 -37 56 -86 l54 -88 71 56 c40
31 71 58 70 61 -2 3 -6 50 -10 105 -3 55 -8 112 -11 128 -2 15 -2 27 0 27 3 0
19 -26 37 -57 18 -32 43 -75 56 -96 l24 -37 61 49 62 50 -2 138 -1 138 47 -97
c26 -54 49 -98 52 -98 3 0 31 21 63 47 l59 48 -7 110 c-3 60 -8 122 -9 138 -2
15 0 27 3 27 3 0 30 -43 60 -95 60 -105 55 -103 129 -38 l42 38 2 133 c0 72 2
132 4 132 2 0 26 -39 55 -87 28 -49 53 -89 54 -91 2 -2 11 5 21 16 11 10 33
28 51 40 20 15 30 29 28 41 -2 10 -6 56 -9 103 -4 47 -8 94 -10 104 -2 10 -7
60 -10 109 -4 50 -9 106 -11 125 -2 19 -7 69 -10 110 -3 41 -8 91 -10 110 -4
35 -11 103 -20 210 -3 30 -8 71 -10 90 -3 19 -7 53 -9 75 -11 85 -17 131 -21
155 -2 14 -7 43 -10 65 -3 23 -7 50 -9 60 -2 11 -7 40 -11 65 -3 25 -8 56 -11
70 -2 14 -13 72 -25 130 -11 58 -23 118 -26 133 -11 67 -133 537 -153 589 -21
57 -97 180 -140 228 -12 14 -32 36 -44 50 -38 45 -151 136 -216 174 -93 55
-198 87 -284 88 -79 0 -131 -16 -211 -67 -27 -18 -72 -45 -98 -61 -27 -16 -59
-36 -73 -44 -13 -8 -63 -39 -111 -69 -48 -30 -207 -129 -353 -219 -146 -91
-277 -172 -292 -181 -15 -9 -71 -44 -125 -77 -189 -118 -268 -165 -247 -147
12 10 90 72 174 138 84 66 158 125 164 130 6 6 44 35 83 65 57 43 70 57 60 66
-6 7 -174 110 -372 229 -198 120 -384 233 -413 251 -29 19 -54 34 -56 34 -2 0
-47 27 -101 59 l-97 59 -25 -21 c-14 -12 -31 -27 -37 -32 -6 -6 -39 -34 -73
-64 l-62 -54 -63 7 c-35 3 -81 8 -103 11 -22 2 -89 9 -150 15 -60 6 -126 13
-145 15 -19 2 -64 7 -100 11 -36 3 -73 7 -83 9 -10 2 -55 6 -99 10 -45 4 -89
8 -98 10 -9 2 -51 6 -93 9 -42 4 -91 9 -109 11 -18 2 -80 9 -138 15 -58 6
-121 13 -140 15 -19 3 -64 7 -100 10 -36 3 -81 7 -100 10 -19 2 -64 7 -100 10
-36 3 -76 8 -90 10 -14 2 -54 7 -90 10 -36 4 -78 8 -95 10 -16 2 -59 6 -95 9
-36 4 -85 9 -110 11 -44 5 -47 3 -107 -55z m36 -67 c-30 -54 -44 -115 -85
-358 -2 -16 -15 -86 -27 -155 -23 -122 -24 -125 -50 -128 -30 -4 -32 1 -16 68
6 25 12 54 15 65 7 38 24 120 30 145 6 31 12 58 18 90 2 14 15 72 27 130 21
97 26 109 68 153 24 26 46 47 48 47 1 0 -11 -26 -28 -57z m715 -18 c11 -2 62
-7 111 -11 50 -3 104 -8 120 -9 17 -2 66 -6 110 -9 44 -4 98 -9 120 -11 42 -4
131 -12 230 -20 33 -3 78 -7 100 -10 22 -2 76 -7 120 -10 44 -3 100 -8 125
-10 25 -3 71 -7 103 -10 31 -3 83 -8 115 -11 31 -3 64 -6 72 -6 8 0 28 -2 43
-5 28 -5 28 -5 8 -19 -20 -14 -90 -14 -200 2 -18 2 -63 6 -100 9 -36 3 -88 7
-116 10 -27 3 -81 7 -120 10 -38 3 -88 7 -110 10 -22 3 -71 7 -110 10 -38 3
-90 8 -115 10 -44 4 -107 10 -227 20 -137 12 -180 16 -218 20 -22 2 -78 7
-125 10 l-86 7 -37 -84 c-39 -90 -43 -88 -26 12 6 36 13 74 14 85 2 11 4 22 4
24 1 3 154 -8 195 -14z m1655 -532 c234 -141 431 -260 436 -266 6 -5 -19 5
-53 23 -35 17 -114 55 -175 84 -122 58 -293 141 -540 260 l-158 76 28 40 c15
22 30 40 32 40 1 0 195 -115 430 -257z m-2577 -393 c95 -11 193 -22 218 -26
25 -3 65 -7 90 -10 25 -2 61 -6 80 -9 19 -3 60 -7 90 -10 30 -3 71 -8 90 -10
61 -8 203 -24 260 -30 30 -3 66 -7 80 -10 14 -2 52 -7 84 -10 33 -3 73 -8 90
-10 42 -6 110 -13 176 -20 30 -3 71 -7 90 -10 19 -3 60 -7 90 -10 48 -5 153
-17 260 -30 110 -13 138 -16 170 -20 19 -2 62 -7 95 -10 33 -3 71 -8 85 -10
14 -3 48 -7 75 -10 115 -12 152 -16 185 -20 19 -2 58 -7 85 -10 28 -3 64 -7
80 -9 17 -2 62 -7 100 -12 39 -4 75 -8 80 -9 6 -1 25 -3 43 -3 26 -2 32 -6 32
-24 0 -40 -14 -50 -59 -44 -68 10 -113 15 -180 21 -36 4 -79 8 -95 10 -17 2
-60 7 -96 10 -36 4 -72 9 -81 10 -9 2 -54 6 -100 10 -46 4 -86 8 -89 10 -3 1
-41 6 -85 10 -44 4 -82 8 -85 10 -3 2 -45 6 -95 9 -49 4 -97 9 -105 11 -17 4
-97 13 -185 20 -33 3 -71 7 -85 10 -14 2 -56 7 -95 10 -38 4 -81 8 -95 10 -24
4 -67 8 -175 20 -27 3 -68 8 -90 10 -38 5 -63 7 -195 20 -66 7 -121 13 -175
19 -22 3 -69 8 -105 11 -35 3 -66 8 -69 10 -2 3 -11 -1 -19 -8 -13 -9 -14 -9
-8 1 5 9 -3 12 -31 13 -21 0 -47 2 -58 4 -11 3 -45 7 -75 10 -30 3 -68 7 -85
9 -16 2 -55 7 -85 10 -30 4 -66 8 -80 10 -14 2 -52 7 -85 12 -33 4 -64 8 -70
9 -5 0 -37 5 -69 9 l-60 9 60 28 c32 15 69 28 81 28 12 1 100 -8 195 -19z
m3277 -110 c345 -93 602 -499 777 -1225 4 -16 8 -34 10 -40 4 -14 52 -244 59
-280 19 -107 37 -213 50 -304 9 -58 18 -122 21 -141 2 -19 7 -53 10 -75 2 -22
6 -56 9 -75 16 -131 26 -232 22 -236 -2 -2 -9 31 -15 73 -6 43 -14 89 -17 103
-3 14 -12 63 -21 110 -9 47 -22 110 -30 140 -8 30 -17 66 -19 80 -3 14 -7 34
-10 45 -2 11 -12 49 -20 85 -88 361 -273 874 -427 1185 -130 260 -208 349
-393 445 -80 43 -240 100 -278 100 -32 0 -14 10 34 18 58 11 186 6 238 -8z
m-3125 -518 l38 -24 -7 -81 c-3 -45 -8 -98 -10 -117 -2 -19 -6 -71 -9 -115 -4
-44 -9 -98 -11 -120 -2 -22 -7 -76 -10 -120 -4 -44 -8 -93 -10 -110 -2 -16 -7
-68 -10 -115 -3 -47 -8 -98 -10 -115 -2 -16 -6 -66 -10 -110 -3 -44 -8 -100
-10 -125 -2 -25 -6 -79 -10 -120 -3 -41 -8 -91 -10 -110 -2 -19 -7 -73 -10
-119 -4 -47 -8 -92 -10 -101 -2 -10 -6 -66 -10 -126 -4 -60 -8 -111 -10 -114
-2 -3 -6 -48 -10 -100 -11 -151 -18 -120 -10 50 4 85 8 205 10 265 2 61 7 173
10 250 11 263 15 360 20 520 3 88 8 198 10 245 2 47 7 166 11 265 4 99 8 205
9 235 2 30 4 77 4 103 1 36 4 46 14 41 6 -4 29 -18 51 -32z m1271 -332 c0 -26
3 -26 -84 -22 -31 2 -39 5 -36 20 2 9 4 21 4 25 1 4 27 7 58 5 54 -3 58 -5 58
-28z"/>
</g>
</svg>
