<svg width="150" height="150" viewBox="0 0 150 150" fill="currentColor" xmlns="http://www.w3.org/2000/svg">
<path fill-rule="evenodd" clip-rule="evenodd" d="M103.125 116.951V121.875H112.5C115.089 121.875 117.188 119.789 117.188 117.218V37.5H98.4277C93.2555 37.5 89.0625 33.3443 89.0625 28.0973V4.6875H42.1668C39.5894 4.6875 37.5 6.82154 37.5 9.35371V117.209C37.5 119.786 39.6314 121.875 42.1873 121.875H79.6875V116.951C76.7878 113.992 75 109.939 75 105.469C75 96.4078 82.3453 89.0625 91.4062 89.0625C100.467 89.0625 107.812 96.4078 107.812 105.469C107.812 109.939 106.025 113.992 103.125 116.951ZM84.375 120.296V138.75L91.4062 131.719L98.4375 138.75V120.296C96.3064 121.309 93.9225 121.875 91.4062 121.875C88.89 121.875 86.5061 121.309 84.375 120.296ZM103.125 126.562H112.512C117.683 126.562 121.875 122.352 121.875 117.231V32.8125L93.75 0H42.2004C37.0156 0 32.8125 4.21096 32.8125 9.40936V117.153C32.8125 122.35 36.9887 126.562 42.1754 126.562H79.6875V150L91.4062 138.281L103.125 150V126.562ZM93.75 7.03125V28.0838C93.75 30.6954 95.8624 32.8125 98.4222 32.8125H115.781L93.75 7.03125ZM46.875 32.8125V37.5H79.6875V32.8125H46.875ZM46.875 18.75V23.4375H79.6875V18.75H46.875ZM46.875 46.875V51.5625H107.812V46.875H46.875ZM46.875 60.9375V65.625H107.812V60.9375H46.875ZM46.875 75V79.6875H107.812V75H46.875ZM91.4062 117.188C97.8783 117.188 103.125 111.941 103.125 105.469C103.125 98.9967 97.8783 93.75 91.4062 93.75C84.9342 93.75 79.6875 98.9967 79.6875 105.469C79.6875 111.941 84.9342 117.188 91.4062 117.188Z"/>
</svg>
