<svg width="150" height="150" viewBox="0 0 150 150" fill="currentColor" xmlns="http://www.w3.org/2000/svg">
<path d="M93.75 89.0625H23.4375C18.2812 89.0625 14.0625 84.8438 14.0625 79.6875V60.9375C14.0625 55.7812 18.2812 51.5625 23.4375 51.5625H51.5625L103.125 70.3125V79.6875C103.125 84.8438 98.9063 89.0625 93.75 89.0625Z" stroke="currentColor" fill="transparent" stroke-width="7" stroke-miterlimit="10" stroke-linecap="round" stroke-linejoin="round"/>
<path d="M23.4375 37.5V51.5625" stroke="currentColor" stroke-width="7" stroke-miterlimit="10" stroke-linecap="round" stroke-linejoin="round"/>
<path d="M98.4375 131.25H18.75C11.25 131.25 4.6875 125.156 4.6875 117.188C4.6875 109.687 10.7812 103.125 18.75 103.125H98.4375C105.938 103.125 112.5 109.219 112.5 117.188C112.5 125.156 106.406 131.25 98.4375 131.25Z" stroke="currentColor" fill="transparent" stroke-width="7" stroke-miterlimit="10" stroke-linecap="round" stroke-linejoin="round"/>
<path d="M121.875 51.5625V89.0625L145.312 121.875" stroke="currentColor" stroke-width="7" stroke-miterlimit="10" stroke-linecap="round" stroke-linejoin="round" fill="transparent"/>
<path d="M103.125 79.6875L121.875 89.0625" stroke="currentColor" stroke-width="7" stroke-miterlimit="10" stroke-linecap="round" stroke-linejoin="round" />
<path d="M103.125 70.3125L95.1562 22.0312C94.2187 17.3437 90.4687 14.0625 85.7812 14.0625H60.9375C55.7812 14.0625 51.5625 18.2812 51.5625 23.4375V51.5625" stroke="currentColor" stroke-width="7" stroke-miterlimit="10" stroke-linecap="round" stroke-linejoin="round" fill="transparent"/>
<path d="M32.8125 70.3125H51.5625" stroke="currentColor" stroke-width="7" stroke-miterlimit="10" stroke-linecap="round" stroke-linejoin="round" />
</svg>
