<svg width="41" height="40" viewBox="0 0 41 40" fill="currentColor" xmlns="http://www.w3.org/2000/svg">
<path d="M34.25 33.75C33.905 33.75 33.625 33.47 33.625 33.125V16.875C33.625 16.53 33.905 16.25 34.25 16.25C34.595 16.25 34.875 16.53 34.875 16.875V33.125C34.875 33.47 34.595 33.75 34.25 33.75Z"/>
<path d="M6.75 33.75C6.405 33.75 6.125 33.47 6.125 33.125V16.875C6.125 16.53 6.405 16.25 6.75 16.25C7.095 16.25 7.375 16.53 7.375 16.875V33.125C7.375 33.47 7.095 33.75 6.75 33.75Z"/>
<path d="M20.5 18.04C20.3762 18.04 20.2537 18.0037 20.1475 17.9312L4.94125 7.52624C4.65625 7.33124 4.58375 6.9425 4.77875 6.6575C4.97375 6.3725 5.36125 6.29875 5.6475 6.495L20.5 16.6575L31.6975 8.99625C31.9837 8.80125 32.3725 8.875 32.5662 9.15875C32.7612 9.44375 32.6887 9.8325 32.4037 10.0275L20.8538 17.93C20.7463 18.0037 20.6237 18.04 20.5 18.04Z"/>
<path d="M36.125 33.75H4.875C3.1525 33.75 1.75 32.3475 1.75 30.625V9.375C1.75 9.03 2.03 8.75 2.375 8.75C2.72 8.75 3 9.03 3 9.375V30.625C3 31.6588 3.84125 32.5 4.875 32.5H36.125C37.1587 32.5 38 31.6588 38 30.625V9.375C38 8.34125 37.1587 7.5 36.125 7.5C35.78 7.5 35.5 7.22 35.5 6.875C35.5 6.53 35.78 6.25 36.125 6.25C37.8475 6.25 39.25 7.6525 39.25 9.375V30.625C39.25 32.3475 37.8475 33.75 36.125 33.75Z"/>
<path d="M20.5 23.75C20.3762 23.75 20.2525 23.7138 20.145 23.64L3.0825 11.8725C2.2475 11.2975 1.75 10.3475 1.75 9.33375C1.75 7.63375 3.13375 6.25 4.83375 6.25H36.165C37.8662 6.25 39.25 7.63375 39.25 9.33375C39.25 10.3475 38.7525 11.2963 37.9175 11.8725L20.855 23.64C20.7475 23.7138 20.6238 23.75 20.5 23.75ZM4.83375 7.5C3.8225 7.5 3 8.3225 3 9.33375C3 9.9375 3.29625 10.5013 3.7925 10.8438L20.5 22.3662L37.2075 10.8438C37.7038 10.5013 38 9.9375 38 9.33375C38 8.3225 37.1775 7.5 36.1663 7.5H4.83375Z"/>
</svg>
