<svg width="18" height="18" viewBox="0 0 18 18" fill="currentColor" xmlns="http://www.w3.org/2000/svg">
    <path d="M1.00006 4C1.13167 3.99924 1.26213 4.02446 1.38397 4.07423C1.5058 4.12399 1.61662 4.19732 1.71006 4.29L9.00006 11.59L16.2901 4.29C16.4784 4.1017 16.7338 3.99591 17.0001 3.99591C17.2664 3.99591 17.5218 4.1017 17.7101 4.29C17.8984 4.4783 18.0042 4.7337 18.0042 5C18.0042 5.2663 17.8984 5.5217 17.7101 5.71L9.71006 13.71C9.61709 13.8037 9.5065 13.8781 9.38464 13.9289C9.26278 13.9797 9.13207 14.0058 9.00006 14.0058C8.86805 14.0058 8.73734 13.9797 8.61548 13.9289C8.49362 13.8781 8.38302 13.8037 8.29006 13.71L0.29006 5.71C0.196331 5.61704 0.121935 5.50644 0.071167 5.38458C0.0203991 5.26272 -0.00573921 5.13201 -0.00573921 5C-0.00573921 4.86799 0.0203991 4.73728 0.071167 4.61542C0.121935 4.49356 0.196331 4.38296 0.29006 4.29C0.383501 4.19732 0.494314 4.12399 0.616152 4.07423C0.737989 4.02446 0.868452 3.99924 1.00006 4Z"/>
</svg>
