<svg width="41" height="40" viewBox="0 0 41 40" fill="currentColor" xmlns="http://www.w3.org/2000/svg">
<path d="M20.1713 38.75C9.8425 38.75 1.75 30.5138 1.75 20C1.75 15.4637 3.29625 11.1112 6.10625 7.745C6.32875 7.48 6.72125 7.44625 6.98625 7.66625C7.25125 7.8875 7.2875 8.28125 7.06625 8.54625C4.44375 11.6875 3 15.755 3 20C3 29.8137 10.5425 37.5 20.1713 37.5C30.0025 37.5 38 29.65 38 20C38 10.35 30.0025 2.5 20.1713 2.5C17.1213 2.5 14.155 3.275 11.5987 4.74C11.3025 4.90625 10.9175 4.8075 10.7462 4.5075C10.575 4.2075 10.6788 3.82625 10.9788 3.65375C13.7238 2.08125 16.9025 1.25 20.1713 1.25C30.6913 1.25 39.25 9.66125 39.25 20C39.25 30.3387 30.6913 38.75 20.1713 38.75Z"/>
<path d="M9.92874 5.68994C9.92874 6.03369 9.64749 6.31494 9.30374 6.31494C8.95999 6.31494 8.67874 6.03369 8.67874 5.68994C8.67874 5.34619 8.95999 5.06494 9.30374 5.06494C9.64749 5.06494 9.92874 5.34494 9.92874 5.68994Z"/>
<path d="M24.9375 30.0225C24.7987 30.0225 24.6575 29.9763 24.5425 29.8813L17.3387 23.98C17.1975 23.865 17.1137 23.6938 17.1087 23.5113C17.105 23.3288 17.18 23.155 17.315 23.0325L22.6612 18.2075C22.9175 17.9738 23.3125 17.9963 23.5437 18.2525C23.7762 18.5088 23.755 18.9038 23.4987 19.135L18.6912 23.4725L25.3325 28.9138C25.6 29.1325 25.6387 29.5263 25.42 29.7938C25.2975 29.9438 25.1175 30.0225 24.9375 30.0225Z"/>
<path d="M25.6963 30.255C25.365 30.255 25.0088 30.1512 24.635 29.945L20.5275 26.6437L18.4225 28.585C18.13 28.8712 17.7725 29.2187 17.0613 29.2187C16.1863 29.2187 15.9825 28.7575 15.8488 28.2837C15.825 28.2025 15.7988 28.1075 15.76 27.9987L14.2525 23.0375L9.93251 21.69C8.91501 21.3775 8.77876 20.7537 8.76751 20.5012C8.75001 20.0812 8.96876 19.4825 10.11 19.025L28.67 11.8637C29.2013 11.6562 29.825 11.8237 30.185 12.2675C30.4388 12.5787 30.5363 12.9837 30.4538 13.3787L27.2475 28.7225C26.96 30.105 26.0663 30.255 25.6963 30.255ZM20.5 25.1937C20.6388 25.1937 20.7775 25.24 20.8913 25.3325L25.3288 28.91C25.9025 29.1837 25.9538 28.8037 26.025 28.4675L29.2313 13.125L29.1525 13.0237L10.57 20.1887C10.3513 20.2762 10.2075 20.3625 10.12 20.4262C10.1663 20.4487 10.2275 20.4725 10.3038 20.4962L14.9425 21.9437C15.1388 22.0062 15.2938 22.1612 15.3538 22.3587L16.9463 27.6037C16.9875 27.7137 17.0225 27.8387 17.0525 27.9437C17.055 27.9512 17.0575 27.96 17.0588 27.9675C17.225 27.9662 17.3125 27.9212 17.5438 27.695L20.0763 25.3575C20.1963 25.25 20.3475 25.1937 20.5 25.1937Z"/>
<path d="M25.5537 16.9399C25.5537 17.2837 25.2725 17.5649 24.9287 17.5649C24.585 17.5649 24.3037 17.2837 24.3037 16.9399C24.3037 16.5962 24.585 16.3149 24.9287 16.3149C25.2725 16.3149 25.5537 16.5949 25.5537 16.9399Z"/>
</svg>
