<svg width="41" height="40" viewBox="0 0 41 40" fill="currentColor" xmlns="http://www.w3.org/2000/svg">
<path d="M20.505 38.75C16.92 38.75 13.4475 37.7362 10.4425 35.8162L3.7575 37.9525C3.53375 38.0238 3.2875 37.9637 3.12125 37.7962C2.95625 37.6287 2.89875 37.3812 2.975 37.1587L5.13125 30.7262C2.91875 27.5763 1.75 23.875 1.75 20C1.75 14.905 3.765 10.1362 7.42375 6.5725C7.67 6.3325 8.06625 6.3375 8.3075 6.58375C8.5475 6.83125 8.5425 7.2275 8.295 7.4675C4.88125 10.795 3 15.245 3 20C3 23.7175 4.1525 27.2638 6.33125 30.255C6.45 30.4188 6.4825 30.63 6.4175 30.8225L4.5525 36.3875L10.3438 34.5363C10.5238 34.4775 10.7212 34.5062 10.88 34.61C13.7362 36.5 17.065 37.5 20.505 37.5C30.1525 37.5 38 29.65 38 20C38 10.3512 30.1525 2.5 20.505 2.5C20.5037 2.5 20.5025 2.5 20.5012 2.5C17.7925 2.5 15.2037 3.10125 12.7962 4.28625C12.4862 4.4375 12.1125 4.31125 11.96 4.0025C11.8075 3.69375 11.9338 3.3175 12.245 3.165C14.825 1.895 17.6025 1.25 20.495 1.25C30.84 1.25 39.25 9.66125 39.25 20C39.25 30.3387 30.84 38.75 20.505 38.75Z"/>
<path d="M26.2525 30.6163C24.9887 30.6163 23.225 30.1288 20.7037 29.0838C17.4125 27.7213 14.15 24.8663 11.5162 21.0475L11.4225 20.9138C10.5525 19.725 9.14374 17.4475 9.14374 15.07C9.14374 12.2838 10.5375 10.87 11.1337 10.2663C11.695 9.69004 12.5337 9.38379 13.4762 9.38379C13.7137 9.38379 13.9262 9.39504 14.12 9.40629C14.9137 9.43754 15.3737 9.63754 15.8112 10.6838L16.265 11.7838C16.745 12.9475 17.3362 14.3838 17.4287 14.5775C17.5312 14.7888 17.8425 15.4375 17.4962 16.1125C17.3112 16.5075 17.13 16.7163 16.8812 17.0038C16.7062 17.205 16.59 17.33 16.4712 17.455C16.3337 17.6025 16.1937 17.7475 16.0537 17.9238C15.8125 18.2063 15.8125 18.2063 15.8937 18.3475C16.3562 19.1288 17.34 20.6288 18.71 21.8475C20.4875 23.4288 21.9237 24.01 22.6137 24.29L22.785 24.36C22.9662 24.435 23.195 24.4888 23.3662 24.3075C23.6762 23.9738 24.0687 23.425 24.4837 22.8438L24.7325 22.495C25.1687 21.8788 25.7062 21.7488 26.08 21.7488C26.2987 21.7488 26.5262 21.7925 26.7587 21.88C27.34 22.0825 30.3987 23.6063 30.43 23.6213L30.7237 23.765C31.1612 23.975 31.5062 24.1413 31.7037 24.4888C31.99 24.9863 31.8775 26.2913 31.4425 27.5225C30.9212 28.9963 28.9837 30.1475 27.4262 30.4825C27.1162 30.5475 26.7475 30.6163 26.2525 30.6163ZM13.475 10.6338C12.885 10.6338 12.3475 10.8113 12.07 11.095C11.4937 11.68 10.3925 12.7963 10.3925 15.07C10.3925 16.5463 11.1237 18.3925 12.3987 20.1338L12.5437 20.34C15.0412 23.9625 18.1087 26.6588 21.18 27.93C23.5462 28.9113 25.1575 29.3675 26.2512 29.3675C26.6262 29.3675 26.905 29.315 27.16 29.2613C28.3762 28.9988 29.9075 28.1 30.2587 27.1063C30.6387 26.035 30.6312 25.2113 30.5862 25.0475C30.5837 25.0863 30.3587 24.98 30.1775 24.8925L29.8662 24.74C28.99 24.3013 26.725 23.195 26.3287 23.0563C26.2237 23.0163 26.1437 23 26.0762 23C26.02 23 25.9037 23 25.7462 23.2225L25.4962 23.5725C25.0575 24.1875 24.6437 24.7675 24.2762 25.1625C23.805 25.6663 22.9962 25.8063 22.3 25.5163L22.1412 25.4513C21.445 25.17 19.8137 24.51 17.875 22.785C16.38 21.4525 15.3137 19.8313 14.8112 18.9825C14.2825 18.0713 14.8187 17.4438 15.0762 17.1425C15.24 16.9388 15.4 16.77 15.56 16.6C15.665 16.4888 15.77 16.3775 15.8775 16.2525C16.1587 15.9288 16.2512 15.8213 16.3725 15.5625C16.4087 15.4913 16.4287 15.39 16.2987 15.12C16.2037 14.92 15.5962 13.4525 15.1075 12.2625L14.655 11.1663C14.4487 10.6713 14.4487 10.6713 14.0562 10.6563C13.8762 10.6438 13.6862 10.6338 13.475 10.6338Z"/>
<path d="M9.875 5.625C10.2202 5.625 10.5 5.34518 10.5 5C10.5 4.65482 10.2202 4.375 9.875 4.375C9.52982 4.375 9.25 4.65482 9.25 5C9.25 5.34518 9.52982 5.625 9.875 5.625Z"/>
</svg>
