<svg xmlns="http://www.w3.org/2000/svg" version="1.1" xmlns:xlink="http://www.w3.org/1999/xlink" xmlns:svgjs="http://svgjs.dev/svgjs" width="71" height="71"><svg width="71" height="71" viewBox="0 0 71 71" fill="none" xmlns="http://www.w3.org/2000/svg">
<path d="M26.3542 8.62236L25.8571 5.58527L12.8375 4.2981L12.1682 8.09445L34.0645 10.7894L26.3542 8.62236Z" fill="#DF9130"></path>
<path d="M36.7711 9.85103L26.8578 5.07056L26.5232 5.53329L26.9683 8.13371L34.3407 10.1834L36.7711 9.85103Z" fill="#DF9130"></path>
<path d="M35.9231 12.0049L34.8411 15.3157L45.076 25.5968L34.4934 16.3845L33.7624 18.6265L45.5764 31.7036L45.3912 34.1867L48.8874 38.0743C47.7631 27.816 43.4904 17.7304 41.5897 15.1658C39.6889 12.6012 35.9231 12.0049 35.9231 12.0049Z" fill="#DF9130"></path>
<path d="M52.5752 3.84204L43.9551 8.91906L52.5914 5.27586C54.398 5.54307 56.0096 6.45224 57.4457 7.94797C56.6789 6.05142 54.4792 4.25915 52.5752 3.84204Z" fill="#DF9130"></path>
<path d="M33.1548 15.2246L33.0605 15.6678L6.037 11.7411L2.29393 11.2393L1.18921 11.7346L11.918 18.3236L32.3587 18.9297L33.1548 15.2246Z" fill="#DF9130"></path>
<path d="M11.0993 70.9348C11.5119 70.9609 11.9441 70.9837 12.3989 70.9935C12.8538 71.0033 13.3022 70.9935 13.7246 70.9935C13.4495 65.4298 13.1723 59.8673 12.8928 54.3058C10.5707 49.683 9.89756 44.402 10.9855 39.342L12.7239 20.4417L9.33821 18.5093L7.18399 41.8675C7.11941 44.1763 7.18124 46.4869 7.3692 48.7889C7.48776 50.4583 7.69383 52.1204 7.98654 53.7681C8.25623 55.2476 8.42518 55.7462 8.91256 58.1119C9.23748 59.6435 9.42594 60.7384 9.67612 62.1494C10.053 64.2154 10.5567 67.1874 11.0993 70.9348Z" fill="#DF9130"></path>
<path d="M20.0963 20.9142L18.8746 20.7415L18.1922 49.2027L20.0963 20.9142Z" fill="#DF9130"></path>
<path d="M21.0483 20.3081L20.145 20.3015C19.4951 29.9342 18.8453 39.569 18.1955 49.206L18.8778 20.7447L18.9753 20.295L15.5246 20.2657L21.0483 20.3113L33.7201 20.4221L44.1663 31.9839L44.0038 33.5448L43.9388 34.177L48.9946 39.7754L49.8588 39.5082L50.7134 41.408L51.9416 40.4304L52.0683 37.5855L53.0431 39.1921L53.1893 39.4332L54.6189 38.2894L54.3785 35.5098L55.5709 37.5269L56.8316 36.52L56.7926 33.6784L57.8031 35.7379L57.8291 35.7216L59.0541 34.744L58.8624 31.7721L60.11 33.8902L60.6852 33.4275L61.2473 32.981L61.2668 31.8992L61.3057 30.1101L62.4202 32.0393L63.4632 31.2051C62.5924 22.348 62.5274 17.3948 59.9313 8.23141C59.8679 8.01002 59.792 7.79242 59.7039 7.57968C58.336 4.27538 53.8554 0.922205 51.0286 2.6656L49.0953 3.86153L43.2955 7.44607L38.5809 10.3789L37.0083 11.3565L41.1413 8.09781L42.5319 7.00289L31.8421 0.531164L29.7983 2.26152L8.09049 0L7.76557 0.290022L6.8233 1.16661L5.67309 6.81063L5.48464 7.74913L0 10.8742L0.324919 12.8457L2.68383 14.3382L2.86254 29.6018L2.1932 30.8303C2.25494 33.3884 2.22245 35.4837 2.37191 38.0483C2.38016 38.318 2.45856 38.5809 2.59935 38.8108C2.84546 39.1584 3.21125 39.4022 3.6261 39.4951L4.09073 39.6353L5.67959 40.1208L5.58861 41.1603V41.3298C5.58861 41.4471 5.56911 41.5676 5.56262 41.6882C5.56262 41.6882 5.56262 41.8772 5.54637 42.0662C5.32543 48.8312 5.49113 55.9351 5.49113 55.9351C5.59836 59.259 5.66984 64.1828 5.49113 70.9935H10.6898C9.71508 64.3002 8.78257 59.4838 8.06449 56.2219C7.4975 53.8178 7.13875 51.369 6.99226 48.9029C6.86922 46.6201 6.93769 44.331 7.19696 42.0597L7.21321 41.8642L9.33818 18.5093L12.7141 20.4319L10.9758 39.3322C10.5404 44.0671 10.8555 49.949 13.3379 54.208L14.069 70.9837H17.2435C18.424 70.9837 19.6002 70.9772 20.7721 70.9641M36.7711 9.85097L34.3407 10.1768L26.9683 8.14669L26.5232 5.53975L26.8481 5.07701L27.4719 4.23628L36.7711 9.85097ZM12.7531 3.33362L13.078 1.29695L29.2427 2.72099L28.8561 3.04686L13.5491 1.70103L12.8278 3.29452L12.7238 3.52914L12.7531 3.33362ZM7.12873 1.70429L8.17822 0.537681L7.47314 1.93565L6.4204 7.82082H5.84855L7.12873 1.70429ZM6.47889 30.8629L5.75432 38.8792L5.73482 39.1008V38.8727L6.59586 16.8082L7.63235 17.46L6.47889 30.8629ZM33.1548 15.2213L32.3587 18.9296L11.918 18.3235L1.1892 11.7312L2.29393 11.2359L3.65534 10.6233L33.4114 14.0351L33.1548 15.2213ZM12.1682 8.09455L12.8376 4.29819L25.8571 5.60166L26.3542 8.63875L34.0645 10.8058L12.1682 8.09455ZM45.3912 34.1868L45.5764 31.7036L33.7624 18.6266L34.4934 16.3846L45.076 25.5969L34.8411 15.3158L35.9231 12.005C36.42 11.8825 36.9288 11.8147 37.4404 11.8029C44.3515 11.6661 47.5909 23.1203 48.8873 38.0743L45.3912 34.1868ZM52.5914 5.27579L43.9551 8.91899L52.5752 3.84198C54.4792 4.25909 56.6789 6.05136 57.449 7.94791C56.0096 6.45217 54.398 5.53975 52.5914 5.27579Z" fill="black"></path>
<path d="M6.03699 11.741L33.0605 15.6677L33.1547 15.2245L33.2652 14.7096L6.03699 11.741Z" fill="black"></path>
</svg><style>@media (prefers-color-scheme: light) { :root { filter: none; } }
@media (prefers-color-scheme: dark) { :root { filter: none; } }
</style></svg>