<svg width="1107" height="421" viewBox="0 0 1107 421" fill="none" xmlns="http://www.w3.org/2000/svg">
<g clip-path="url(#clip0_1208_11718)">
<g clip-path="url(#clip1_1208_11718)">
<path d="M321.588 296.157V313.992C321.588 349.636 303.728 367.464 268.01 367.477H178.719V420.962H143.007V242.673H268.01C303.741 242.673 321.601 260.501 321.588 296.157ZM285.875 296.157C285.875 284.281 279.92 278.342 268.01 278.342H178.719V331.827H268.01C279.933 331.827 285.888 325.882 285.875 313.992V296.157Z" fill="black"/>
<path d="M518.036 420.961H482.323V385.291H375.167V420.961H339.455V293.181C339.455 257.537 357.314 239.715 393.033 239.715H464.457C500.189 239.715 518.048 257.537 518.036 293.181V420.961ZM482.323 349.738V293.181C482.323 281.304 476.368 275.365 464.457 275.365H393.033C381.122 275.365 375.167 281.304 375.167 293.181V349.738H482.323Z" fill="black"/>
<path d="M714.481 420.962H678.769V349.739H571.612V421.059H535.9V242.673H571.612V313.992H678.769V242.673H714.481V420.962Z" fill="black"/>
<path d="M910.929 420.962H875.217V297.298L768.06 420.962H732.348V242.673H768.06V366.337L875.217 242.673H910.929V420.962Z" fill="black"/>
<path d="M1107.38 278.342H1035.93V420.962H1000.2V278.342H928.775V242.673H1107.36L1107.38 278.342Z" fill="black"/>
<path d="M156.478 51.1279L153.517 33.1192L75.9561 25.4868L71.9688 47.9976L202.411 63.9774L156.478 51.1279Z" fill="#DF9130"/>
<path d="M218.534 58.4114L159.478 30.0652L157.484 32.809L160.136 48.2284L204.056 60.3823L218.534 58.4114Z" fill="#DF9130"/>
<path d="M213.483 71.1848L207.037 90.8165L268.009 151.779L204.966 97.1543L200.611 110.448L270.99 187.99L269.887 202.714L290.714 225.765C284.017 164.938 258.564 105.135 247.24 89.9277C235.917 74.7208 213.483 71.1848 213.483 71.1848Z" fill="#DF9130"/>
<path d="M312.685 22.7812L261.333 52.8858L312.782 31.2832C323.544 32.8676 333.145 38.2586 341.7 47.1277C337.132 35.8819 324.028 25.2545 312.685 22.7812Z" fill="#DF9130"/>
<path d="M196.99 90.275L196.429 92.9029L35.443 69.6192L13.1446 66.6436L6.56348 69.5806L70.4779 108.651L192.248 112.245L196.99 90.275Z" fill="#DF9130"/>
<path d="M65.6012 420.613C68.0594 420.768 70.6338 420.903 73.3437 420.961C76.0535 421.019 78.7247 420.961 81.241 420.961C79.6022 387.971 77.9505 354.987 76.2858 322.01C62.4522 294.599 58.4423 263.284 64.9237 233.281L75.2793 121.21L55.1101 109.752L42.2768 248.256C41.8921 261.946 42.2604 275.647 43.3802 289.297C44.0865 299.196 45.3141 309.051 47.0578 318.822C48.6644 327.594 49.6709 330.551 52.5744 344.579C54.51 353.66 55.6327 360.153 57.1231 368.519C59.3684 380.77 62.3687 398.392 65.6012 420.613Z" fill="#DF9130"/>
<path d="M119.199 124.012L111.921 122.988L107.856 291.751L119.199 124.012Z" fill="#DF9130"/>
<path d="M124.87 120.418L119.489 120.38C115.618 177.497 111.746 234.627 107.875 291.771L111.94 123.007L112.521 120.341L91.9642 120.167L124.87 120.438L200.359 121.094L262.59 189.651L261.622 198.906L261.235 202.655L291.353 235.851L296.502 234.267L301.593 245.532L308.909 239.735L309.664 222.866L315.471 232.392L316.342 233.822L324.859 227.04L323.427 210.558L330.53 222.519L338.04 216.548L337.808 199.699L343.828 211.911L343.983 211.814L351.28 206.017L350.138 188.395L357.571 200.955L360.997 198.211L364.346 195.564L364.462 189.149L364.694 178.54L371.333 189.979L377.547 185.033C372.359 132.514 371.972 103.144 356.506 48.8088C356.129 47.496 355.676 46.2058 355.151 44.9443C347.002 25.3512 320.31 5.46829 303.47 15.8059L291.953 22.8972L257.402 44.1521L229.316 61.5424L219.948 67.3391L244.569 48.0166L252.854 41.5242L189.171 3.14958L176.996 13.4099L47.6771 0L45.7415 1.71971L40.1281 6.91748L33.276 40.3842L32.1534 45.9491L-0.52002 64.4794L1.41561 76.1695L15.4683 85.0193L16.5329 175.526L12.5455 182.811C12.9132 197.979 12.7197 210.403 13.6101 225.61C13.6592 227.21 14.1263 228.768 14.965 230.132C16.4311 232.193 18.6102 233.638 21.0816 234.189L23.8495 235.02L33.3147 237.899L32.7728 244.063V245.068C32.7728 245.764 32.6566 246.479 32.6179 247.194C32.6179 247.194 32.6179 248.314 32.5211 249.435C31.2049 289.549 32.1921 331.672 32.1921 331.672C32.8308 351.381 33.2567 380.577 32.1921 420.961H63.1621C57.3552 381.273 51.8 352.714 47.5222 333.372C44.1445 319.117 42.0074 304.597 41.1347 289.974C40.4017 276.438 40.8096 262.864 42.3541 249.396L42.4509 248.237L55.1099 109.752L75.2211 121.152L64.8655 233.223C62.2717 261.299 64.1493 296.176 78.9375 321.431L83.2926 420.903H102.204C109.236 420.903 116.243 420.865 123.225 420.787M218.535 58.4121L204.056 60.3444L160.137 48.3064L157.485 32.8484L159.421 30.1046L163.137 25.1193L218.535 58.4121ZM75.4533 19.767L77.389 7.69038L173.686 16.1343L171.383 18.0666L80.1956 10.0864L75.8985 19.5351L75.2791 20.9263L75.4533 19.767ZM41.9476 10.1057L48.1997 3.18822L43.9994 11.4776L37.728 46.3741H34.3213L41.9476 10.1057ZM38.0764 183.004L33.7599 230.537L33.6438 231.851V230.499L38.7732 99.6658L44.9479 103.53L38.0764 183.004ZM196.991 90.2557L192.249 112.245L70.4788 108.651L6.56438 69.5612L13.1455 66.6242L21.2558 62.9916L198.521 83.2223L196.991 90.2557ZM71.9692 47.9972L75.9566 25.4865L153.517 33.2155L156.479 51.2241L202.411 64.0736L71.9692 47.9972ZM269.887 202.713L270.99 187.989L200.611 110.448L204.966 97.1538L268.009 151.779L207.037 90.816L213.483 71.1843C216.443 70.4581 219.474 70.0564 222.522 69.9863C263.693 69.1748 282.991 137.094 290.714 225.765L269.887 202.713ZM312.781 31.2832L261.332 52.8859L312.684 22.7813C324.027 25.2546 337.131 35.882 341.718 47.1277C333.143 38.2587 323.543 32.8484 312.781 31.2832Z" fill="black"/>
<path d="M35.4434 69.6189L196.429 92.9026L196.991 90.2747L197.649 87.2217L35.4434 69.6189Z" fill="black"/>
<path d="M1104.65 204.472H436.371V214.133H1104.65V204.472Z" fill="#DF9130"/>
<path d="M484.954 105.675H474.85V95.5887H444.538V105.675H434.434V69.5612C434.434 59.4748 439.486 54.4316 449.59 54.4316H469.837C479.941 54.4316 484.993 59.4748 484.993 69.5612L484.954 105.675ZM474.85 85.5023V69.5612C474.952 68.8771 474.893 68.1787 474.679 67.5211C474.464 66.8635 474.099 66.2646 473.613 65.7719C473.127 65.2791 472.533 64.9058 471.877 64.6815C471.222 64.4572 470.523 64.388 469.837 64.4794H449.59C448.9 64.3813 448.197 64.4456 447.537 64.6669C446.876 64.8882 446.277 65.2606 445.786 65.7542C445.295 66.2479 444.927 66.8491 444.71 67.5101C444.494 68.1711 444.435 68.8735 444.538 69.5612V85.541L474.85 85.5023Z" fill="black"/>
<path d="M540.527 70.373V75.3582C540.527 85.4446 535.475 90.4878 525.371 90.4878H500.111V105.617H490.007V55.2434H525.371C535.475 55.2434 540.527 60.2866 540.527 70.373ZM530.423 70.373C530.519 69.6881 530.456 68.9902 530.236 68.3343C530.016 67.6784 529.647 67.0824 529.157 66.5934C528.667 66.1043 528.07 65.7356 527.413 65.5163C526.756 65.297 526.057 65.2332 525.371 65.3298H500.111V80.4594H525.371C526.062 80.5581 526.767 80.4938 527.43 80.2714C528.092 80.049 528.693 79.6749 529.184 79.1789C529.675 78.683 530.043 78.079 530.258 77.4155C530.473 76.752 530.53 76.0474 530.423 75.3582V70.373Z" fill="black"/>
<path d="M596.08 65.3298H555.683V75.3582H585.976V85.4446H555.683V95.5309H596.08V105.617H545.579V55.2434H596.08V65.3298Z" fill="black"/>
<path d="M651.651 105.675H641.547V85.5025H611.235V105.675H601.131V55.2434H611.235V75.3582H641.547V55.2434H651.651V105.675Z" fill="black"/>
<path d="M707.221 95.5887H712.273V115.761H702.11V105.675H666.805V115.761H656.701V95.5887H661.753V69.5612C661.753 59.4748 666.805 54.4316 676.909 54.4316H692.065C702.169 54.4316 707.221 59.4748 707.221 69.5612V95.5887ZM697.117 95.5887V69.5612C697.213 68.8764 697.149 68.1785 696.93 67.5225C696.71 66.8666 696.341 66.2706 695.851 65.7816C695.361 65.2926 694.764 64.9239 694.107 64.7046C693.45 64.4853 692.751 64.4214 692.065 64.518H676.947C676.258 64.4147 675.555 64.4736 674.893 64.6899C674.231 64.9062 673.628 65.2739 673.134 65.7638C672.639 66.2537 672.266 66.8522 672.044 67.5115C671.823 68.1708 671.758 68.8727 671.857 69.5612V95.5887H697.117Z" fill="black"/>
<path d="M767.924 105.675H757.82V95.5888H727.431V105.675H717.327V69.5613C717.327 59.4749 722.379 54.4317 732.483 54.4317H752.691C762.847 54.406 767.924 59.4492 767.924 69.5613V105.675ZM757.82 85.5024V69.5613C757.917 68.8765 757.853 68.1786 757.634 67.5226C757.414 66.8667 757.045 66.2707 756.555 65.7817C756.065 65.2927 755.468 64.924 754.811 64.7047C754.154 64.4854 753.455 64.4215 752.769 64.5181H732.483C731.797 64.4215 731.098 64.4854 730.441 64.7047C729.784 64.924 729.187 65.2927 728.697 65.7817C728.207 66.2707 727.838 66.8667 727.618 67.5226C727.398 68.1786 727.334 68.8765 727.431 69.5613V85.5411L757.82 85.5024Z" fill="black"/>
<path d="M484.954 179.101H449.59C439.486 179.101 434.434 174.058 434.434 163.972V143.799C434.434 133.712 439.486 128.669 449.59 128.669H484.954V138.756H449.59C448.904 138.659 448.205 138.723 447.548 138.942C446.891 139.161 446.294 139.53 445.804 140.019C445.314 140.508 444.945 141.104 444.725 141.76C444.505 142.416 444.441 143.114 444.538 143.799V163.972C444.441 164.656 444.505 165.354 444.725 166.01C444.945 166.666 445.314 167.262 445.804 167.751C446.294 168.24 446.891 168.609 447.548 168.828C448.205 169.047 448.904 169.111 449.59 169.015H484.954V179.101Z" fill="black"/>
<path d="M540.527 179.101H530.423V138.756H500.111V179.101H490.007V128.669H540.527V179.101Z" fill="black"/>
<path d="M596.08 138.756H555.683V148.784H585.976V158.87H555.683V168.957H596.08V179.043H545.579V128.669H596.08V138.756Z" fill="black"/>
<path d="M651.651 169.015H656.703V189.187H646.599V179.101H601.131V128.669H611.235V169.015H641.547V128.669H651.651V169.015Z" fill="black"/>
<path d="M712.275 138.756H692.067V179.101H681.963V138.756H661.755V128.669H712.275V138.756Z" fill="black"/>
<path d="M767.924 138.756H727.431V148.784H757.743V158.87H727.431V168.957H767.924V179.043H717.404V128.669H767.924V138.756Z" fill="black"/>
<path d="M772.898 179.101L791.848 153.981L772.898 128.862H785.538L798.158 145.673L810.798 128.862H823.418L804.468 153.981L823.418 179.101H810.798L798.158 162.309L785.538 179.12L772.898 179.101Z" fill="black"/>
<path d="M876.474 179.101H866.37V158.928H836.058V179.101H825.993V128.669H836.097V148.784H866.409V128.669H876.513L876.474 179.101Z" fill="black"/>
<path d="M932.047 179.101H921.943V144.127L891.631 179.101H881.527V128.669H891.631V163.643L921.943 128.669H932.047V179.101Z" fill="black"/>
<path d="M987.616 179.101H974.725L958.562 158.928H947.2V179.101H937.096V128.669H947.2V148.784H958.562L974.725 128.611H987.616L967.408 153.731L987.616 179.101Z" fill="black"/>
<path d="M1040.66 179.101H1030.55V144.127L1000.2 179.101H990.135V128.669H1000.2V163.643L1030.51 128.669H1040.62L1040.66 179.101Z" fill="black"/>
</g>
</g>
<defs>
<clipPath id="clip0_1208_11718">
<rect width="1106.85" height="421" fill="white"/>
</clipPath>
<clipPath id="clip1_1208_11718">
<rect width="1107.89" height="421" fill="white" transform="translate(-0.52002)"/>
</clipPath>
</defs>
</svg>
