<?xml version="1.0" encoding="utf-8"?><svg width="150" height="150" fill="currentColor" xmlns="http://www.w3.org/2000/svg" viewBox="0 0 150 150"><path d="M93.75 89.063H23.437c-5.156 0-9.375-4.22-9.375-9.376v-18.75c0-5.156 4.22-9.374 9.376-9.374h28.125l51.562 18.75v9.374c0 5.157-4.219 9.376-9.375 9.376z" stroke="currentColor" fill="transparent" stroke-width="7" stroke-miterlimit="10" stroke-linecap="round" stroke-linejoin="round"/><path d="M23.438 37.5v14.063" stroke="currentColor" stroke-width="7" stroke-miterlimit="10" stroke-linecap="round" stroke-linejoin="round"/><path d="M98.438 131.25H18.75c-7.5 0-14.063-6.094-14.063-14.062 0-7.501 6.094-14.063 14.063-14.063h79.688c7.5 0 14.062 6.094 14.062 14.063 0 7.968-6.094 14.062-14.063 14.062zM121.875 51.563v37.5l23.437 32.812" stroke="currentColor" fill="transparent" stroke-width="7" stroke-miterlimit="10" stroke-linecap="round" stroke-linejoin="round"/><path d="M103.125 79.688l18.75 9.374" stroke="currentColor" stroke-width="7" stroke-miterlimit="10" stroke-linecap="round" stroke-linejoin="round"/><path d="M103.125 70.313L95.156 22.03c-.937-4.687-4.687-7.968-9.375-7.968H60.937c-5.156 0-9.374 4.218-9.374 9.374v28.125" stroke="currentColor" stroke-width="7" stroke-miterlimit="10" stroke-linecap="round" stroke-linejoin="round" fill="transparent"/><path d="M32.813 70.313h18.75" stroke="currentColor" stroke-width="7" stroke-miterlimit="10" stroke-linecap="round" stroke-linejoin="round"/></svg>