<?xml version="1.0" encoding="utf-8"?><svg width="150" height="150" fill="currentColor" xmlns="http://www.w3.org/2000/svg" viewBox="0 0 150 150"><path fill-rule="evenodd" clip-rule="evenodd" d="M103.125 116.951v4.924h9.375c2.589 0 4.688-2.086 4.688-4.657V37.5h-18.76c-5.172 0-9.365-4.156-9.365-9.403V4.687H42.166c-2.578 0-4.667 2.135-4.667 4.667v107.855c0 2.577 2.131 4.666 4.687 4.666h37.5v-4.924A16.353 16.353 0 0175 105.469c0-9.061 7.345-16.406 16.406-16.406s16.406 7.345 16.406 16.406c0 4.47-1.787 8.523-4.687 11.482zm-18.75 3.345v18.454l7.031-7.031 7.031 7.031v-18.454a16.333 16.333 0 01-7.03 1.579c-2.517 0-4.9-.566-7.032-1.579zm18.75 6.266h9.387c5.171 0 9.363-4.21 9.363-9.331V32.813L93.75 0H42.2c-5.184 0-9.388 4.211-9.388 9.41v107.743c0 5.197 4.177 9.409 9.363 9.409h37.513V150l11.718-11.719L103.125 150v-23.438zM93.75 7.032v21.052c0 2.611 2.112 4.729 4.672 4.729h17.359L93.75 7.03zm-46.875 25.78V37.5h32.813v-4.688H46.874zm0-14.062v4.688h32.813V18.75H46.874zm0 28.125v4.688h60.937v-4.688H46.875zm0 14.063v4.687h60.937v-4.688H46.875zm0 14.062v4.688h60.937V75H46.875zm44.531 42.188c6.472 0 11.719-5.247 11.719-11.719 0-6.472-5.247-11.719-11.719-11.719-6.472 0-11.719 5.247-11.719 11.719 0 6.472 5.247 11.719 11.72 11.719z"/></svg>