<?xml version="1.0" encoding="utf-8"?><svg width="150" height="150" fill="currentColor" xmlns="http://www.w3.org/2000/svg" viewBox="0 0 150 150"><path d="M75.584 76.638c-16.194 0-29.37-13.178-29.37-29.378 0-16.195 13.176-29.37 29.37-29.37 16.196 0 29.377 13.175 29.377 29.37 0 16.2-13.18 29.378-29.377 29.378zm0-50.466c-11.63 0-21.088 9.46-21.088 21.088 0 11.634 9.459 21.096 21.088 21.096 11.63 0 21.094-9.462 21.094-21.096-.002-11.628-9.465-21.087-21.094-21.087z"/><path d="M106.879 130.937a4.142 4.142 0 01-4.142-4.143v-41.66c0-6.785-3.862-12.288-10.874-15.493a4.143 4.143 0 013.445-7.533c9.987 4.568 15.712 12.96 15.712 23.028v41.658a4.14 4.14 0 01-4.141 4.143zM44.699 130.94a4.142 4.142 0 01-4.143-4.142V85.136c0-9.902 5.507-18.187 15.11-22.73a4.142 4.142 0 013.544 7.487c-6.784 3.21-10.37 8.481-10.37 15.243v41.66a4.142 4.142 0 01-4.142 4.144zM24.478 75.162c-10.566 0-19.166-8.602-19.166-19.173 0-10.572 8.6-19.171 19.166-19.171 10.576 0 19.18 8.599 19.18 19.172-.002 10.57-8.604 19.172-19.18 19.172zm0-30.062c-6 0-10.883 4.885-10.883 10.888s4.883 10.887 10.883 10.887c6.01 0 10.895-4.884 10.895-10.887S30.486 45.1 24.479 45.1z"/><path d="M6.086 106.869a4.142 4.142 0 01-4.143-4.142V78.544c0-6.646 3.452-11.942 9.719-14.913a4.143 4.143 0 015.515 1.97c.981 2.067.101 4.536-1.968 5.516-3.352 1.588-4.981 4.018-4.981 7.427v24.183a4.142 4.142 0 01-4.142 4.142zM126.847 75.162c-10.571 0-19.172-8.602-19.172-19.173 0-10.572 8.601-19.171 19.172-19.171s19.171 8.599 19.171 19.172c0 10.57-8.6 19.172-19.171 19.172zm0-30.062c-6.005 0-10.887 4.885-10.887 10.888s4.884 10.887 10.887 10.887c6.004 0 10.886-4.884 10.886-10.887S132.851 45.1 126.847 45.1z"/><path d="M145.484 106.869a4.141 4.141 0 01-4.141-4.142V78.544c0-3.476-1.693-5.942-5.181-7.538a4.14 4.14 0 01-2.04-5.489 4.14 4.14 0 015.489-2.04c6.458 2.956 10.015 8.307 10.015 15.069v24.183a4.141 4.141 0 01-4.142 4.14z"/></svg>