<?xml version="1.0" encoding="utf-8"?><svg width="143" height="143" fill="none" xmlns="http://www.w3.org/2000/svg" viewBox="0 0 143 143"><path d="M41.5 112.469l1.357 1.008-.717.964-1.3-.967c-.576-.427-1.1-.692-1.577-.794-.475-.102-.901-.07-1.276.097a2.477 2.477 0 00-.983.815c-.268.36-.424.755-.468 1.185-.048.435.048.88.287 1.333.235.459.645.906 1.23 1.341.44.326.898.537 1.378.634.476.102.927.085 1.353-.052a2.056 2.056 0 001.054-.763l1.512 1.125a3.44 3.44 0 01-1.278 1.081 3.668 3.668 0 01-1.579.372 4.804 4.804 0 01-1.702-.28 6.213 6.213 0 01-1.652-.887 7.557 7.557 0 01-1.505-1.447c-.395-.505-.67-1.025-.823-1.561a3.35 3.35 0 01-.063-1.617c.11-.542.364-1.079.76-1.612a2.895 2.895 0 011.096-.901c.44-.209.926-.318 1.46-.327a4.922 4.922 0 011.683.29 6.72 6.72 0 011.754.963zm.861 1.674l-1.355-1.008c-.643-.478-1.167-.968-1.571-1.472-.405-.503-.686-1.008-.845-1.516a3.048 3.048 0 01-.09-1.515c.089-.502.31-.99.664-1.466.396-.533.852-.928 1.368-1.185a3.688 3.688 0 011.65-.404 4.949 4.949 0 011.824.346c.62.234 1.237.579 1.848 1.033.491.365.93.789 1.318 1.272a5.28 5.28 0 01.85 1.557c.185.559.24 1.135.164 1.728-.08.589-.339 1.176-.773 1.761l-1.513-1.125c.283-.381.44-.809.467-1.283a2.886 2.886 0 00-.315-1.426c-.236-.468-.605-.888-1.107-1.261-.574-.427-1.126-.7-1.656-.817-.538-.117-1.028-.096-1.47.063a2.34 2.34 0 00-1.12.834c-.26.351-.427.696-.503 1.038-.084.343-.079.679.016 1.009.09.327.268.65.534.969.256.32.596.638 1.02.953l1.3.967-.705.948zM27.417 107.361l13.05-4.45 1.205 1.5-14.478 4.683-.777-.967 1-.766zm7.63-11.194L27.9 107.962l-.964.812-.777-.967 7.676-13.147 1.21 1.507zm-3.95 3.488l1.203-.967 5.004 6.227-1.203.967-5.004-6.227zM19.496 97.404l13.035-5.68.752 1.727-13.034 5.68-.753-1.727zm-3.5-8.03l9.637 2.532 1.334 3.062-1.315.893-1.003-2.3-7.72-2.048-.933-2.14zm13.792-3.944l-3.954 7.55-1.934-.308 4.967-9.355.92 2.113z" fill="currentColor"/><path d="M15.35 79.782l13.513 2.73.286 1.903-14.866-3.249-.184-1.226 1.25-.158zm12.228-5.826l-12.114 6.589-1.242.216-.184-1.227 13.253-7.49.287 1.912zm-5.169 1.023l1.526-.23 1.187 7.9-1.526.23-1.187-7.9zM21.152 65.702l-.183 1.68-1.194-.13.176-1.612c.077-.712.04-1.299-.113-1.76-.153-.463-.396-.814-.73-1.053a2.483 2.483 0 00-1.2-.435 2.358 2.358 0 00-1.26.197c-.4.179-.734.486-1.004.922-.277.434-.454 1.014-.533 1.74-.06.543-.01 1.046.15 1.509.152.462.396.842.73 1.14.328.298.725.472 1.19.523l-.204 1.874a3.444 3.444 0 01-1.58-.556 3.684 3.684 0 01-1.12-1.173 4.82 4.82 0 01-.62-1.61 6.21 6.21 0 01-.07-1.874 7.567 7.567 0 01.486-2.03c.235-.596.545-1.096.93-1.5a3.352 3.352 0 011.362-.873c.524-.178 1.116-.232 1.776-.16.485.053.93.216 1.332.49.402.272.742.637 1.02 1.093.278.456.478.988.602 1.598.117.609.136 1.275.057 2zm-1.008 1.59l.183-1.68c.086-.796.245-1.496.474-2.1.23-.603.523-1.102.88-1.495a3.05 3.05 0 011.261-.845c.478-.177 1.011-.233 1.6-.17.66.073 1.232.266 1.715.58.484.309.878.715 1.184 1.22.305.505.513 1.087.625 1.748.112.654.127 1.36.044 2.117a7.163 7.163 0 01-.43 1.78 5.282 5.282 0 01-.912 1.521c-.389.443-.858.781-1.408 1.016-.548.228-1.185.303-1.91.224l.204-1.874c.473.052.92-.03 1.343-.246.424-.222.781-.554 1.071-.993.284-.441.46-.972.527-1.593.078-.712.034-1.326-.133-1.842-.172-.523-.438-.935-.798-1.236a2.345 2.345 0 00-1.287-.543c-.434-.048-.817-.017-1.15.09-.338.101-.625.276-.862.525-.236.243-.425.56-.565.95a5.495 5.495 0 00-.306 1.362l-.175 1.612-1.175-.128zM18.452 50.936l10.453 8.99-.681 1.8-11.379-10.103.44-1.16 1.167.473zm13.516.899l-13.79-.177-1.188-.419.44-1.16 15.223-.052-.685 1.808zM26.96 50.2l1.443.546-2.828 7.47-1.443-.546 2.828-7.47zM25.01 36.33l11.572 8.26-1.078 1.51-11.572-8.26 1.078-1.51zm2.655-3.72l1.256.896-6.383 8.942-1.256-.897 6.383-8.942zM35.322 33.16l2.957-2.507c.795-.673 1.579-1.108 2.352-1.303.77-.2 1.498-.181 2.185.055.688.237 1.303.676 1.846 1.316.404.477.695.982.873 1.513.174.527.229 1.07.164 1.628a4.274 4.274 0 01-.586 1.65c-.326.541-.788 1.064-1.383 1.57l-4.052 3.435-9.196-10.845 1.438-1.22 8.203 9.677 2.615-2.217c.531-.45.879-.911 1.042-1.383.165-.48.189-.945.073-1.394a3.03 3.03 0 00-.634-1.216 2.846 2.846 0 00-1.077-.802c-.41-.173-.858-.207-1.343-.104-.483.094-.99.367-1.522.817l-2.957 2.507-.998-1.177zM55.05 22.934l-1.592.566-.402-1.132 1.527-.543c.675-.24 1.187-.53 1.536-.868.35-.338.56-.71.63-1.115.07-.405.026-.828-.13-1.27a2.357 2.357 0 00-.726-1.048c-.335-.282-.758-.45-1.267-.503-.512-.06-1.111.033-1.798.277a3.445 3.445 0 00-1.294.792c-.35.339-.586.723-.71 1.154-.124.425-.109.858.048 1.3l-1.775.631a3.445 3.445 0 01-.188-1.664 3.686 3.686 0 01.569-1.519 4.82 4.82 0 011.18-1.259 6.208 6.208 0 011.656-.88 7.566 7.566 0 012.039-.445 4.578 4.578 0 011.755.184c.53.17.99.453 1.379.847.389.394.694.903.917 1.529.163.46.21.93.14 1.412-.071.481-.252.946-.541 1.394-.29.449-.682.861-1.177 1.238-.497.37-1.089.677-1.776.922zm-1.87-.216l1.592-.566c.754-.269 1.453-.43 2.097-.487.643-.056 1.22-.009 1.73.142.509.15.945.406 1.309.767.367.353.65.809.849 1.367.222.626.297 1.224.224 1.796a3.68 3.68 0 01-.583 1.596 4.93 4.93 0 01-1.301 1.324 7.622 7.622 0 01-1.887.961 7.17 7.17 0 01-1.79.388 5.28 5.28 0 01-1.767-.16 3.878 3.878 0 01-1.527-.824c-.444-.395-.788-.936-1.033-1.623l1.776-.632c.16.448.428.816.806 1.102.385.285.839.462 1.36.532.521.064 1.076-.009 1.665-.218.674-.24 1.207-.547 1.6-.922.396-.383.65-.802.765-1.257a2.344 2.344 0 00-.071-1.395c-.146-.41-.34-.742-.582-.995a1.923 1.923 0 00-.848-.548 2.61 2.61 0 00-1.102-.095c-.409.034-.862.14-1.359.317l-1.527.543-.396-1.113zM67.509 20.376l-3.586.352-.168-1.504 3.256-.32c.538-.053.999-.19 1.383-.411.383-.22.669-.51.856-.87.193-.365.266-.784.22-1.257-.051-.519-.193-.93-.426-1.234-.227-.311-.551-.521-.974-.63-.417-.116-.937-.144-1.559-.083l-2.76.272 1.24 12.615-1.875.184-1.391-14.15 4.635-.456c.726-.072 1.381-.06 1.966.032.584.087 1.09.266 1.515.538.432.265.775.624 1.028 1.077.254.452.414 1.009.478 1.67a2.925 2.925 0 01-.29 1.628c-.253.496-.63.919-1.132 1.269-.496.35-1.092.601-1.79.755l-.626.523zm.563 6.627l-4.237.416.91-1.63 3.177-.312c.596-.059 1.091-.212 1.486-.46.4-.249.692-.572.876-.97.183-.403.248-.864.197-1.383-.051-.525-.19-.969-.415-1.333a1.957 1.957 0 00-.971-.797c-.422-.168-.951-.22-1.586-.158l-2.673.262-.128-1.508 3.654-.36.452.506c.686-.009 1.282.13 1.787.413.505.277.905.657 1.201 1.138.303.48.484 1.025.544 1.634.086.882-.035 1.646-.364 2.293-.323.64-.819 1.153-1.487 1.54-.67.38-1.477.616-2.423.709zM86.459 20.924l-.151.886c-.179 1.053-.47 1.974-.876 2.763-.405.79-.904 1.435-1.498 1.935-.593.5-1.263.845-2.008 1.035-.74.192-1.536.215-2.39.07a5.634 5.634 0 01-2.203-.85 5.204 5.204 0 01-1.563-1.643c-.401-.67-.669-1.444-.803-2.326-.134-.88-.112-1.848.067-2.9l.15-.886c.18-1.053.474-1.97.885-2.752.417-.788.926-1.431 1.526-1.93a5.062 5.062 0 012.01-1.045 5.634 5.634 0 012.36-.074c.854.145 1.598.43 2.233.855a4.95 4.95 0 011.552 1.65c.401.67.662 1.444.784 2.323.128.873.103 1.837-.076 2.89zm-1.99.573l.154-.905c.142-.834.18-1.587.116-2.258-.057-.67-.213-1.251-.466-1.744a3.243 3.243 0 00-1.035-1.196c-.43-.304-.944-.507-1.54-.608a3.634 3.634 0 00-1.627.07 3.37 3.37 0 00-1.363.789c-.401.38-.746.876-1.035 1.488-.289.61-.504 1.334-.646 2.168l-.154.905c-.143.84-.18 1.6-.11 2.28.07.672.235 1.258.493 1.758.266.494.611.893 1.035 1.196.43.304.935.505 1.512.603.604.103 1.159.082 1.665-.063a3.185 3.185 0 001.353-.79c.403-.388.742-.888 1.018-1.502.277-.62.487-1.35.63-2.19zM98.308 25.529l-.673 1.378-6.915-3.376.672-1.378 6.916 3.376zm-3.97-8.741L88.1 29.565l-1.694-.827 6.238-12.777 1.694.827zm8.126 3.967l-6.238 12.778-1.685-.823 6.238-12.777 1.685.822zM111.4 36.606l-.605.665c-.719.789-1.462 1.407-2.23 1.852-.767.447-1.535.72-2.305.82-.769.1-1.519.03-2.25-.213-.725-.238-1.408-.649-2.048-1.232a5.628 5.628 0 01-1.395-1.905 5.193 5.193 0 01-.429-2.227c.024-.78.217-1.577.58-2.39.363-.815.904-1.617 1.623-2.406l.605-.664c.719-.79 1.462-1.403 2.23-1.84.777-.437 1.552-.703 2.327-.8.778-.1 1.53-.031 2.256.207.73.242 1.406.646 2.027 1.212.64.583 1.112 1.224 1.417 1.925.309.704.447 1.446.415 2.227-.024.78-.222 1.573-.595 2.378-.363.805-.904 1.602-1.623 2.391zm-1.984-.591l.618-.68c.57-.625 1.009-1.237 1.318-1.837.313-.595.496-1.168.548-1.72a3.236 3.236 0 00-.225-1.565c-.198-.489-.52-.937-.968-1.344a3.63 3.63 0 00-1.407-.82 3.368 3.368 0 00-1.572-.071c-.544.103-1.102.334-1.676.693-.573.358-1.144.85-1.714 1.476l-.618.679c-.575.63-1.016 1.25-1.324 1.859-.304.604-.481 1.186-.534 1.746-.043.56.032 1.082.225 1.566.198.488.514.93.947 1.325.452.412.931.693 1.436.845a3.184 3.184 0 001.565.065c.548-.108 1.104-.346 1.667-.713.568-.373 1.14-.874 1.714-1.504zM120.183 37.346l-12.007 7.617-1.01-1.592 12.007-7.616 1.01 1.591zm4.692 7.397l-9.912-1.021-1.789-2.82 1.163-1.085 1.344 2.12 7.944.836 1.25 1.97zm-13.022 6.017l2.746-8.068 1.959.007-3.47 10.007-1.235-1.946z" fill="currentColor"/><path d="M120.513 56.178a51.504 51.504 0 01-13.311 53.935 51.5 51.5 0 01-54.56 10.463" stroke="currentColor"/></svg>