<?xml version="1.0" encoding="utf-8"?><svg width="41" height="40" fill="currentColor" xmlns="http://www.w3.org/2000/svg" viewBox="0 0 41 40"><path d="M34.25 33.75a.625.625 0 01-.625-.625v-16.25a.625.625 0 011.25 0v16.25c0 .345-.28.625-.625.625zM6.75 33.75a.625.625 0 01-.625-.625v-16.25a.625.625 0 011.25 0v16.25c0 .345-.28.625-.625.625zM20.5 18.04a.623.623 0 01-.352-.109L4.94 7.526a.625.625 0 11.707-1.031L20.5 16.657l11.198-7.66a.625.625 0 01.706 1.03l-11.55 7.903a.623.623 0 01-.354.11z"/><path d="M36.125 33.75H4.875a3.13 3.13 0 01-3.125-3.125V9.375a.625.625 0 011.25 0v21.25c0 1.034.841 1.875 1.875 1.875h31.25A1.877 1.877 0 0038 30.625V9.375A1.877 1.877 0 0036.125 7.5a.625.625 0 010-1.25 3.13 3.13 0 013.125 3.125v21.25a3.13 3.13 0 01-3.125 3.125z"/><path d="M20.5 23.75a.625.625 0 01-.355-.11L3.082 11.872A3.082 3.082 0 011.75 9.335c0-1.7 1.384-3.084 3.084-3.084h31.331a3.084 3.084 0 011.752 5.623L20.855 23.64a.625.625 0 01-.355.11zM4.834 7.5a1.836 1.836 0 00-1.041 3.344L20.5 22.366l16.708-11.522A1.834 1.834 0 0036.166 7.5H4.834z"/></svg>