<?xml version="1.0" encoding="utf-8"?><svg width="41" height="40" fill="currentColor" xmlns="http://www.w3.org/2000/svg" viewBox="0 0 41 40"><path d="M20.171 38.75C9.842 38.75 1.75 30.514 1.75 20c0-4.536 1.546-8.889 4.356-12.255a.626.626 0 01.96.801C4.444 11.688 3 15.755 3 20c0 9.814 7.543 17.5 17.171 17.5C30.003 37.5 38 29.65 38 20S30.003 2.5 20.171 2.5c-3.05 0-6.016.775-8.572 2.24a.63.63 0 01-.853-.232.626.626 0 01.233-.854C13.724 2.08 16.903 1.25 20.17 1.25 30.691 1.25 39.25 9.661 39.25 20s-8.559 18.75-19.079 18.75z"/><path d="M9.929 5.69a.627.627 0 01-.625.625.627.627 0 01-.625-.625.626.626 0 011.25 0zM24.938 30.023a.62.62 0 01-.395-.142l-7.204-5.901a.626.626 0 01-.024-.948l5.346-4.825a.623.623 0 01.883.046.624.624 0 01-.045.882l-4.808 4.337 6.642 5.442a.625.625 0 01-.395 1.108z"/><path d="M25.696 30.255c-.331 0-.687-.104-1.061-.31l-4.108-3.301-2.105 1.941c-.292.286-.65.634-1.36.634-.876 0-1.08-.462-1.213-.935-.024-.081-.05-.176-.089-.285l-1.508-4.961-4.32-1.348c-1.017-.313-1.153-.936-1.164-1.189-.018-.42.2-1.018 1.342-1.476l18.56-7.161a1.343 1.343 0 011.515.403c.254.312.351.717.269 1.112l-3.207 15.344c-.287 1.382-1.18 1.532-1.55 1.532zM20.5 25.194a.62.62 0 01.391.139l4.438 3.577c.573.274.625-.106.696-.442l3.206-15.343-.079-.101-18.582 7.165a2.08 2.08 0 00-.45.237c.046.023.107.047.184.07l4.639 1.448a.63.63 0 01.41.415l1.593 5.245c.041.11.076.235.106.34a.174.174 0 01.007.024c.166-.002.253-.047.485-.273l2.532-2.337a.635.635 0 01.424-.164z"/><path d="M25.554 16.94a.627.627 0 01-.625.625.627.627 0 01-.625-.625.626.626 0 011.25 0z"/></svg>