<?xml version="1.0" encoding="utf-8"?><svg width="41" height="40" fill="currentColor" xmlns="http://www.w3.org/2000/svg" viewBox="0 0 41 40"><path d="M20.505 38.75a18.635 18.635 0 01-10.062-2.934l-6.685 2.136a.623.623 0 01-.783-.794l2.156-6.432A18.546 18.546 0 011.75 20c0-5.095 2.015-9.864 5.674-13.428a.625.625 0 01.871.895C4.881 10.796 3 15.245 3 20c0 3.718 1.152 7.264 3.331 10.255a.625.625 0 01.087.568l-1.865 5.565 5.79-1.852a.626.626 0 01.537.074 17.39 17.39 0 009.625 2.89C30.153 37.5 38 29.65 38 20c0-9.649-7.848-17.5-17.495-17.5h-.004c-2.709 0-5.297.601-7.705 1.786a.626.626 0 01-.551-1.121 18.528 18.528 0 018.25-1.915C30.84 1.25 39.25 9.661 39.25 20s-8.41 18.75-18.745 18.75z"/><path d="M26.253 30.616c-1.264 0-3.028-.487-5.55-1.532-3.29-1.363-6.553-4.218-9.187-8.037l-.094-.133c-.87-1.189-2.278-3.466-2.278-5.844 0-2.786 1.393-4.2 1.99-4.804.561-.576 1.4-.882 2.342-.882.238 0 .45.011.644.022.794.032 1.254.232 1.691 1.278l.454 1.1c.48 1.163 1.071 2.6 1.164 2.793.102.212.414.86.067 1.536-.185.395-.366.603-.615.89-.175.202-.291.327-.41.452-.137.148-.277.293-.417.469-.241.282-.241.282-.16.424.462.78 1.446 2.28 2.816 3.5 1.777 1.58 3.214 2.162 3.904 2.442l.171.07c.181.075.41.129.581-.052.31-.334.703-.883 1.118-1.464l.248-.349c.437-.616.974-.746 1.348-.746.219 0 .446.044.679.131.581.203 3.64 1.726 3.671 1.741l.294.144c.437.21.782.376.98.724.286.497.174 1.802-.262 3.034-.52 1.473-2.458 2.625-4.016 2.96-.31.064-.678.133-1.173.133zM13.475 10.634c-.59 0-1.127.177-1.405.461-.576.585-1.678 1.701-1.678 3.975 0 1.476.732 3.322 2.007 5.064l.145.206c2.497 3.622 5.565 6.319 8.636 7.59 2.366.981 3.977 1.438 5.071 1.438.375 0 .654-.053.909-.107 1.216-.262 2.747-1.161 3.099-2.155.38-1.071.372-1.895.327-2.059-.002.04-.227-.067-.409-.155l-.31-.152c-.877-.439-3.142-1.545-3.538-1.684a.716.716 0 00-.253-.056c-.056 0-.172 0-.33.223l-.25.35c-.438.614-.852 1.194-1.22 1.59-.471.503-1.28.643-1.976.353l-.159-.065c-.696-.281-2.327-.941-4.266-2.666-1.495-1.332-2.561-2.954-3.064-3.802-.528-.912.008-1.54.265-1.84.164-.204.324-.373.484-.543.105-.111.21-.223.317-.348.282-.323.374-.43.495-.69.037-.07.057-.172-.073-.442-.095-.2-.703-1.667-1.191-2.857l-.453-1.097c-.206-.495-.206-.495-.599-.51a8.222 8.222 0 00-.581-.022zM9.875 5.625a.625.625 0 100-1.25.625.625 0 000 1.25z"/></svg>