<svg width="150" height="150" viewBox="0 0 150 150" fill="currentColor" xmlns="http://www.w3.org/2000/svg">
<path d="M75.5837 76.6385C59.3903 76.6385 46.2134 63.4599 46.2134 47.2599C46.2134 31.0648 59.3903 17.8896 75.5837 17.8896C91.7804 17.8896 104.961 31.0648 104.961 47.2599C104.961 63.4599 91.7804 76.6385 75.5837 76.6385ZM75.5837 26.1725C63.9546 26.1725 54.4963 35.6324 54.4963 47.2599C54.4963 58.894 63.9546 68.3555 75.5837 68.3555C87.2145 68.3555 96.6777 58.894 96.6777 47.2599C96.676 35.6324 87.2128 26.1725 75.5837 26.1725Z" />
<path d="M106.879 130.937C104.591 130.937 102.737 129.082 102.737 126.794V85.134C102.737 78.3494 98.8748 72.8456 91.8627 69.6412C89.7825 68.6901 88.8693 66.234 89.8188 64.1522C90.7715 62.0703 93.2243 61.1555 95.3078 62.1082C105.295 66.6758 111.02 75.0676 111.02 85.1357V126.794C111.022 129.082 109.167 130.937 106.879 130.937Z" />
<path d="M44.6985 130.94C42.4105 130.94 40.5562 129.086 40.5562 126.798V85.1357C40.5562 75.234 46.0633 66.9494 55.6666 62.4066C57.7369 61.4258 60.2029 62.311 61.182 64.378C62.1611 66.445 61.2776 68.9143 59.2105 69.8934C52.4259 73.1027 48.8408 78.3742 48.8408 85.1357V126.796C48.8408 129.086 46.9864 130.94 44.6985 130.94Z" />
<path d="M24.4779 75.1615C13.912 75.1615 5.3125 66.5604 5.3125 55.9895C5.3125 45.417 13.912 36.8176 24.4779 36.8176C35.0537 36.8176 43.6581 45.417 43.6581 55.9895C43.6565 66.5604 35.0537 75.1615 24.4779 75.1615ZM24.4779 45.1005C18.4779 45.1005 13.5955 49.9846 13.5955 55.9879C13.5955 61.9912 18.4779 66.8753 24.4779 66.8753C30.4878 66.8753 35.3735 61.9912 35.3735 55.9879C35.3735 49.9846 30.4861 45.1005 24.4779 45.1005Z" />
<path d="M6.08567 106.869C3.79776 106.869 1.94336 105.015 1.94336 102.727V78.544C1.94336 71.8978 5.39501 66.6017 11.662 63.6313C13.7274 62.6555 16.1983 63.5324 17.1774 65.6011C18.1582 67.6681 17.278 70.1374 15.2093 71.1165C11.8565 72.7055 10.228 75.1352 10.228 78.544V102.727C10.228 105.015 8.37358 106.869 6.08567 106.869Z" />
<path d="M126.847 75.1615C116.276 75.1615 107.675 66.5604 107.675 55.9895C107.675 45.417 116.276 36.8176 126.847 36.8176C137.418 36.8176 146.018 45.417 146.018 55.9895C146.018 66.5604 137.418 75.1615 126.847 75.1615ZM126.847 45.1005C120.842 45.1005 115.96 49.9846 115.96 55.9879C115.96 61.9912 120.844 66.8753 126.847 66.8753C132.851 66.8753 137.733 61.9912 137.733 55.9879C137.733 49.9846 132.851 45.1005 126.847 45.1005Z" />
<path d="M145.484 106.869C143.197 106.869 141.343 105.015 141.343 102.727V78.544C141.343 75.0676 139.65 72.6017 136.162 71.0061C134.082 70.055 133.169 67.5956 134.122 65.517C135.074 63.4352 137.534 62.5253 139.611 63.4764C146.069 66.4335 149.626 71.7841 149.626 78.5456V102.729C149.626 105.015 147.772 106.869 145.484 106.869Z" />
</svg>
