<svg width="24" height="24" viewBox="0 0 24 24" fill="currentColor" xmlns="http://www.w3.org/2000/svg">
<path d="M22.2825 21.2176L17.4075 16.3426H17.355C18.8576 14.5709 19.6169 12.2868 19.4742 9.9681C19.3314 7.64941 18.2976 5.47574 16.589 3.90178C14.8803 2.32783 12.6293 1.47551 10.3067 1.52313C7.98411 1.57075 5.76989 2.51462 4.12722 4.15728C2.48456 5.79995 1.54069 8.01417 1.49307 10.3368C1.44545 12.6594 2.29777 14.9104 3.87173 16.619C5.44568 18.3276 7.61935 19.3615 9.93804 19.5042C12.2567 19.647 14.5408 18.8877 16.3125 17.3851C16.3125 17.3851 16.3125 17.4226 16.3125 17.4376L21.1875 22.3126C21.2572 22.3829 21.3402 22.4387 21.4316 22.4767C21.523 22.5148 21.621 22.5344 21.72 22.5344C21.819 22.5344 21.917 22.5148 22.0084 22.4767C22.0998 22.4387 22.1828 22.3829 22.2525 22.3126C22.3294 22.2445 22.3915 22.1613 22.4349 22.0683C22.4784 21.9752 22.5022 21.8742 22.5051 21.7716C22.5079 21.6689 22.4896 21.5668 22.4513 21.4715C22.413 21.3762 22.3556 21.2898 22.2825 21.2176ZM10.5 18.0001C9.01665 18.0001 7.5666 17.5602 6.33323 16.7361C5.09987 15.912 4.13857 14.7406 3.57091 13.3702C3.00326 11.9998 2.85473 10.4918 3.14412 9.03689C3.43351 7.58204 4.14782 6.24566 5.19671 5.19677C6.2456 4.14788 7.58198 3.43357 9.03683 3.14418C10.4917 2.85479 11.9997 3.00332 13.3701 3.57097C14.7406 4.13863 15.9119 5.09993 16.736 6.33329C17.5601 7.56666 18 9.01671 18 10.5001C18 11.485 17.806 12.4603 17.4291 13.3702C17.0522 14.2801 16.4998 15.1069 15.8033 15.8034C15.1069 16.4998 14.2801 17.0523 13.3701 17.4292C12.4602 17.8061 11.4849 18.0001 10.5 18.0001Z"/>
</svg>
